# Blender v2.82 (sub 7) OBJ File: ''
# www.blender.org
mtllib cube.mtl
o Cube
v 10.000000 10.000000 -10.000000
v 10.000000 -10.000000 -10.000000
v 10.000000 10.000000 10.000000
v 10.000000 -10.000000 10.000000
v -10.000000 10.000000 -10.000000
v -10.000000 -10.000000 -10.000000
v -10.000000 10.000000 10.000000
v -10.000000 -10.000000 10.000000
vt 0.321547 0.658584
vt 0.321547 0.991360
vt 0.174068 0.991361
vt 0.174068 0.658584
vt 0.174068 0.325807
vt 0.026589 0.658584
vt 0.026589 0.325807
vt 0.616504 0.325807
vt 0.616504 0.658584
vt 0.469025 0.658584
vt 0.469025 0.325807
vt 0.321547 -0.006970
vt 0.321547 0.325807
vt 0.174068 -0.006970
vn 0.0000 1.0000 0.0000
vn 0.0000 0.0000 1.0000
vn -1.0000 0.0000 0.0000
vn 0.0000 -1.0000 0.0000
vn 1.0000 0.0000 0.0000
vn 0.0000 0.0000 -1.0000
usemtl Material
s off
f 1/1/1 5/2/1 7/3/1 3/4/1
f 4/5/2 3/4/2 7/6/2 8/7/2
f 8/8/3 7/9/3 5/10/3 6/11/3
f 6/12/4 2/13/4 4/5/4 8/14/4
f 2/13/5 1/1/5 3/4/5 4/5/5
f 6/11/6 5/10/6 1/1/6 2/13/6
